<svg width="33" height="32" viewBox="0 0 33 32" fill="none" xmlns="http://www.w3.org/2000/svg">
<rect x="1" y="0.5" width="31" height="31" rx="15.5" fill="#F4F4F4"/>
<rect x="1" y="0.5" width="31" height="31" rx="15.5" stroke="#0F6CBD"/>
<g clip-path="url(#clip0_2335_38103)">
<path d="M22.6974 7H12.755C12.0472 7 11.4712 7.57616 11.4712 8.28374V9.10359H10.3026C9.59483 9.10359 9.01889 9.67974 9.01889 10.3873V23.7163C9.01889 24.4238 9.59483 25 10.3026 25H20.2454C20.9532 25 21.5291 24.4238 21.5291 23.7163V22.8964H22.6974C23.4053 22.8964 23.9811 22.3203 23.9811 21.6127V8.28374C23.9811 7.57616 23.4053 7 22.6974 7ZM20.5022 23.7163C20.5022 23.8577 20.3867 23.973 20.2454 23.973H10.3026C10.1612 23.973 10.0458 23.8576 10.0458 23.7163V10.3873C10.0458 10.2458 10.1612 10.1305 10.3026 10.1305H11.4712V21.6127C11.4712 22.3202 12.0472 22.8964 12.755 22.8964H20.5022V23.7163ZM22.9542 21.6127C22.9542 21.7541 22.839 21.8695 22.6974 21.8695H12.755C12.6133 21.8695 12.4982 21.7541 12.4982 21.6127V8.28374C12.4982 8.14224 12.6133 8.02696 12.755 8.02696H22.6974C22.839 8.02696 22.9542 8.14228 22.9542 8.28374V21.6127H22.9542Z" fill="#0F6CBD"/>
<path d="M21.4917 10.1892H13.9607C13.6771 10.1892 13.4472 10.4193 13.4472 10.7027C13.4472 10.9865 13.6771 11.2162 13.9607 11.2162H21.4916C21.7752 11.2162 22.0051 10.9865 22.0051 10.7027C22.0052 10.4194 21.7752 10.1892 21.4917 10.1892Z" fill="#0F6CBD"/>
<path d="M21.4917 12.6333H13.9607C13.6771 12.6333 13.4472 12.8633 13.4472 13.1467C13.4472 13.4305 13.6771 13.6603 13.9607 13.6603H21.4916C21.7752 13.6603 22.0051 13.4305 22.0051 13.1467C22.0052 12.8634 21.7752 12.6333 21.4917 12.6333Z" fill="#0F6CBD"/>
<path d="M21.4917 15.0774H13.9607C13.6771 15.0774 13.4472 15.3076 13.4472 15.5909C13.4472 15.8747 13.6771 16.1044 13.9607 16.1044H21.4916C21.7752 16.1044 22.0051 15.8747 22.0051 15.5909C22.0052 15.3076 21.7752 15.0774 21.4917 15.0774Z" fill="#0F6CBD"/>
<path d="M21.4917 17.5215H13.9607C13.6771 17.5215 13.4472 17.7516 13.4472 18.0349C13.4472 18.3189 13.6771 18.5484 13.9607 18.5484H21.4916C21.7752 18.5484 22.0051 18.3188 22.0051 18.0349C22.0052 17.7516 21.7752 17.5215 21.4917 17.5215Z" fill="#0F6CBD"/>
</g>
<defs>
<clipPath id="clip0_2335_38103">
<rect width="18" height="18" fill="white" transform="translate(7.5 7)"/>
</clipPath>
</defs>
</svg>
