<svg width="19" height="18" viewBox="0 0 19 18" fill="none" xmlns="http://www.w3.org/2000/svg">
<g id="icon/Arrow Download">
<path id="Vector" d="M14.1873 15.375C14.498 15.3749 14.75 15.6266 14.75 15.9373C14.75 16.2479 14.4983 16.4999 14.1877 16.5L4.43766 16.5028C4.127 16.5029 3.875 16.2511 3.875 15.9404C3.875 15.6298 4.12668 15.3779 4.43734 15.3778L14.1873 15.375ZM9.23617 1.5088L9.3125 1.50366C9.59727 1.50366 9.83262 1.71528 9.86987 1.98983L9.875 2.06616L9.87425 12.3299L12.6656 9.53966C12.8653 9.33998 13.1778 9.32186 13.398 9.48528L13.4611 9.53975C13.6608 9.73947 13.6789 10.052 13.5155 10.2722L13.461 10.3352L9.71279 14.0827C9.51318 14.2823 9.20089 14.3005 8.9807 14.1373L8.91761 14.0829L5.16502 10.3355C4.9452 10.116 4.94496 9.7598 5.16448 9.53998C5.36404 9.34014 5.67653 9.32177 5.89685 9.48501L5.95998 9.53943L8.74925 12.3247L8.75 2.06616C8.75 1.78139 8.96162 1.54604 9.23617 1.5088L9.3125 1.50366L9.23617 1.5088Z" fill="#0F6CBD"/>
</g>
</svg>
