<svg width="20" height="20" viewBox="0 0 20 20" fill="none" xmlns="http://www.w3.org/2000/svg">
<path d="M3.66429 3.79466L3.72481 3.72456C3.9467 3.50267 4.29392 3.4825 4.53859 3.66405L4.60869 3.72456L10.0001 9.11567L15.3915 3.72456C15.6355 3.48048 16.0313 3.48048 16.2754 3.72456C16.5194 3.96864 16.5194 4.36437 16.2754 4.60845L10.8842 9.99984L16.2754 15.3912C16.4972 15.6131 16.5174 15.9603 16.3359 16.205L16.2754 16.2751C16.0535 16.497 15.7062 16.5172 15.4616 16.3356L15.3915 16.2751L10.0001 10.884L4.60869 16.2751C4.36461 16.5192 3.96888 16.5192 3.72481 16.2751C3.48073 16.031 3.48073 15.6353 3.72481 15.3912L9.11591 9.99984L3.72481 4.60845C3.50292 4.38656 3.48275 4.03934 3.66429 3.79466L3.72481 3.72456L3.66429 3.79466Z" fill="#424242"/>
</svg>
