<svg width="22" height="22" viewBox="0 0 22 22" fill="none" xmlns="http://www.w3.org/2000/svg">
<g id="copy-svgrepo-com">
<path id="Vector" fill-rule="evenodd" clip-rule="evenodd" d="M19.0001 7.4445C19.0001 5.97174 17.8062 4.77783 16.3334 4.77783H9.22233C7.74958 4.77783 6.55566 5.97174 6.55566 7.4445V18.1112C6.55566 19.584 7.74958 20.7778 9.22233 20.7778H16.3334C17.8062 20.7778 19.0001 19.584 19.0001 18.1112V7.4445ZM17.2223 7.4445C17.2223 6.95358 16.8244 6.55561 16.3334 6.55561H9.22233C8.73142 6.55561 8.33344 6.95358 8.33344 7.4445V18.1112C8.33344 18.6021 8.73142 19.0001 9.22233 19.0001H16.3334C16.8244 19.0001 17.2223 18.6021 17.2223 18.1112V7.4445Z" fill="#2868F7"/>
<path id="Vector_2" d="M5.66667 2.99995H14.5556C15.0465 2.99995 15.4444 2.60197 15.4444 2.11106C15.4444 1.62014 15.0465 1.22217 14.5556 1.22217H5.66667C4.19391 1.22217 3 2.41608 3 3.88883V16.3333C3 16.8242 3.39797 17.2222 3.88889 17.2222C4.3798 17.2222 4.77778 16.8242 4.77778 16.3333V3.88883C4.77778 3.39792 5.17575 2.99995 5.66667 2.99995Z" fill="#2868F7"/>
</g>
</svg>
