<svg width="18" height="18" viewBox="0 0 18 18" fill="none" xmlns="http://www.w3.org/2000/svg">
<g id="icon/Filter">
<path id="Vector" d="M10.125 12C10.4357 12 10.6875 12.2518 10.6875 12.5625C10.6875 12.8732 10.4357 13.125 10.125 13.125H7.875C7.56434 13.125 7.3125 12.8732 7.3125 12.5625C7.3125 12.2518 7.56434 12 7.875 12H10.125ZM12.375 8.25C12.6857 8.25 12.9375 8.50184 12.9375 8.8125C12.9375 9.12316 12.6857 9.375 12.375 9.375H5.625C5.31434 9.375 5.0625 9.12316 5.0625 8.8125C5.0625 8.50184 5.31434 8.25 5.625 8.25H12.375ZM14.625 4.5C14.9357 4.5 15.1875 4.75184 15.1875 5.0625C15.1875 5.37316 14.9357 5.625 14.625 5.625H3.375C3.06434 5.625 2.8125 5.37316 2.8125 5.0625C2.8125 4.75184 3.06434 4.5 3.375 4.5H14.625Z" fill="#0F6CBD"/>
</g>
</svg>
