<svg width="40" height="40" viewBox="0 0 40 40" fill="none" xmlns="http://www.w3.org/2000/svg">
<g clip-path="url(#clip0_980_33861)">
<g filter="url(#filter0_dd_980_33861)">
<path d="M20 39.0001C30.4934 39.0001 39 30.4935 39 20.0001C39 9.50671 30.4934 1.00012 20 1.00012C9.50659 1.00012 1 9.50671 1 20.0001C1 30.4935 9.50659 39.0001 20 39.0001Z" fill="#EBF3FC"/>
</g>
<path d="M16.4051 25.0735L8 21.4196V19.3961L16.4051 15.7588V18.1421L10.5412 20.3841L16.4051 22.7092V25.0735Z" fill="#115EA3"/>
<path d="M17.1829 26.6791L20.2194 14.0001H21.984L18.9143 26.6791H17.1829Z" fill="#115EA3"/>
<path d="M22.7618 25.0831V22.7152L28.6328 20.4067L22.7618 18.1244V15.7743L31.1752 19.4116V21.4185L22.7618 25.0831Z" fill="#115EA3"/>
</g>
<defs>
<filter id="filter0_dd_980_33861" x="-1" y="-0.999878" width="42" height="43" filterUnits="userSpaceOnUse" color-interpolation-filters="sRGB">
<feFlood flood-opacity="0" result="BackgroundImageFix"/>
<feColorMatrix in="SourceAlpha" type="matrix" values="0 0 0 0 0 0 0 0 0 0 0 0 0 0 0 0 0 0 127 0" result="hardAlpha"/>
<feOffset/>
<feGaussianBlur stdDeviation="1"/>
<feComposite in2="hardAlpha" operator="out"/>
<feColorMatrix type="matrix" values="0 0 0 0 0 0 0 0 0 0 0 0 0 0 0 0 0 0 0.12 0"/>
<feBlend mode="normal" in2="BackgroundImageFix" result="effect1_dropShadow_980_33861"/>
<feColorMatrix in="SourceAlpha" type="matrix" values="0 0 0 0 0 0 0 0 0 0 0 0 0 0 0 0 0 0 127 0" result="hardAlpha"/>
<feOffset dy="1"/>
<feGaussianBlur stdDeviation="1"/>
<feComposite in2="hardAlpha" operator="out"/>
<feColorMatrix type="matrix" values="0 0 0 0 0 0 0 0 0 0 0 0 0 0 0 0 0 0 0.14 0"/>
<feBlend mode="normal" in2="effect1_dropShadow_980_33861" result="effect2_dropShadow_980_33861"/>
<feBlend mode="normal" in="SourceGraphic" in2="effect2_dropShadow_980_33861" result="shape"/>
</filter>
<clipPath id="clip0_980_33861">
<rect width="40" height="40" fill="white"/>
</clipPath>
</defs>
</svg>
