<svg width="40" height="40" viewBox="0 0 40 40" fill="none" xmlns="http://www.w3.org/2000/svg">
<g clip-path="url(#clip0_980_34096)">
<g filter="url(#filter0_dd_980_34096)">
<path d="M20 39C30.4934 39 39 30.4934 39 20C39 9.50659 30.4934 1 20 1C9.50659 1 1 9.50659 1 20C1 30.4934 9.50659 39 20 39Z" fill="#EBF3FC"/>
</g>
<path d="M31.1727 14.2632L29.5501 13.8273L29.0523 13.6952L27.23 13.2059V11.3161C27.23 10.4246 26.766 10 25.914 10H8.81609C7.96682 10 7.5 10.4246 7.5 11.3161V24.9072C7.5 25.7987 7.964 26.2233 8.81609 26.2233H13.1327L26.9685 29.9297C27.7897 30.1491 28.3465 29.8594 28.5799 28.9989L29.0326 27.306L32.0951 15.8718C32.3313 15.0113 31.991 14.4826 31.1727 14.2632ZM9.69629 24.9072C8.98763 24.9072 8.8189 24.4798 8.8189 24.0298V12.1935C8.8189 11.4848 9.24635 11.3161 9.69629 11.3161H25.0394C25.4893 11.3161 25.9168 11.4848 25.9168 12.1935V24.0298C25.9168 24.4798 25.748 24.9072 25.0394 24.9072H9.69629ZM27.5394 27.815C27.4241 28.248 27.1485 28.6164 26.4651 28.4336L27.1879 28.6277L18.2171 26.2233H25.9168C26.766 26.2233 27.2329 25.7987 27.2329 24.9072V14.5697L29.9831 15.3065C30.4162 15.4218 30.7846 15.6974 30.6018 16.3808L30.8296 15.5343L27.5394 27.815ZM12.7643 13.5096C11.797 13.5096 11.0096 14.2942 11.0096 15.2643C11.0096 16.2317 11.7942 17.0191 12.7643 17.0191C13.7317 17.0191 14.5191 16.2345 14.5191 15.2643C14.5163 14.2942 13.7317 13.5096 12.7643 13.5096Z" fill="#0F6CBD"/>
<path d="M9.41791 25.6945C9.26324 25.6945 9.10857 25.6439 8.98203 25.5398C8.68675 25.298 8.64457 24.8649 8.8836 24.5696L13.0203 19.5134C13.2509 19.2322 13.6586 19.1787 13.9539 19.3896L16.603 21.2822L20.3431 15.8801C20.4753 15.6889 20.6862 15.5764 20.9309 15.582C21.1643 15.5876 21.378 15.7113 21.4989 15.911L26.5552 24.1872C26.7548 24.5134 26.6508 24.9352 26.3274 25.1349C26.0012 25.3317 25.5765 25.2305 25.3797 24.9071L20.8746 17.5308L17.3397 22.6377C17.2357 22.7895 17.0726 22.8936 16.8898 22.9245C16.7098 22.9554 16.5214 22.9133 16.3695 22.8064L13.6783 20.8829L9.95222 25.4414C9.81442 25.6073 9.61757 25.6945 9.41791 25.6945Z" fill="#0F6CBD"/>
</g>
<defs>
<filter id="filter0_dd_980_34096" x="-1" y="-1" width="42" height="43" filterUnits="userSpaceOnUse" color-interpolation-filters="sRGB">
<feFlood flood-opacity="0" result="BackgroundImageFix"/>
<feColorMatrix in="SourceAlpha" type="matrix" values="0 0 0 0 0 0 0 0 0 0 0 0 0 0 0 0 0 0 127 0" result="hardAlpha"/>
<feOffset/>
<feGaussianBlur stdDeviation="1"/>
<feComposite in2="hardAlpha" operator="out"/>
<feColorMatrix type="matrix" values="0 0 0 0 0 0 0 0 0 0 0 0 0 0 0 0 0 0 0.12 0"/>
<feBlend mode="normal" in2="BackgroundImageFix" result="effect1_dropShadow_980_34096"/>
<feColorMatrix in="SourceAlpha" type="matrix" values="0 0 0 0 0 0 0 0 0 0 0 0 0 0 0 0 0 0 127 0" result="hardAlpha"/>
<feOffset dy="1"/>
<feGaussianBlur stdDeviation="1"/>
<feComposite in2="hardAlpha" operator="out"/>
<feColorMatrix type="matrix" values="0 0 0 0 0 0 0 0 0 0 0 0 0 0 0 0 0 0 0.14 0"/>
<feBlend mode="normal" in2="effect1_dropShadow_980_34096" result="effect2_dropShadow_980_34096"/>
<feBlend mode="normal" in="SourceGraphic" in2="effect2_dropShadow_980_34096" result="shape"/>
</filter>
<clipPath id="clip0_980_34096">
<rect width="40" height="40" fill="white"/>
</clipPath>
</defs>
</svg>
