<svg width="40" height="40" viewBox="0 0 40 40" fill="none" xmlns="http://www.w3.org/2000/svg">
<g clip-path="url(#clip0_980_34049)">
<g filter="url(#filter0_dd_980_34049)">
<path d="M20 39C30.4934 39 39 30.4934 39 20C39 9.50659 30.4934 1 20 1C9.50659 1 1 9.50659 1 20C1 30.4934 9.50659 39 20 39Z" fill="#EBF3FC"/>
</g>
<g clip-path="url(#clip1_980_34049)">
<path d="M15.6971 20.785C15.6971 20.1657 15.267 19.796 14.5081 19.796C14.1985 19.796 13.9888 19.8259 13.8788 19.8558V21.8446C14.0088 21.8741 14.1686 21.8842 14.3879 21.8842C15.1976 21.8842 15.6971 21.4746 15.6971 20.785Z" fill="#115EA3"/>
<path d="M20.3945 19.8159C20.0544 19.8159 19.8351 19.8459 19.7048 19.8758V24.2822C19.8349 24.3126 20.0447 24.3126 20.2347 24.3126C21.6134 24.3223 22.5127 23.5633 22.5127 21.9544C22.5228 20.555 21.7032 19.8159 20.3945 19.8159Z" fill="#115EA3"/>
<path d="M29.3954 17.227H28.8431V14.5622C28.8431 14.5456 28.8405 14.5288 28.8383 14.512C28.8374 14.4062 28.8037 14.3023 28.7313 14.2199L24.2968 9.15425C24.2954 9.15296 24.2941 9.1525 24.2932 9.15108C24.2668 9.12156 24.236 9.097 24.2034 9.07575C24.1938 9.06928 24.184 9.06385 24.1739 9.05825C24.1457 9.04284 24.1157 9.03007 24.0849 9.02084C24.0766 9.0185 24.0691 9.01507 24.0607 9.0129C24.0272 9.00497 23.9924 9 23.9572 9H13.0588C12.5611 9 12.1569 9.40475 12.1569 9.902V17.2268H11.6047C10.8928 17.2268 10.3155 17.8038 10.3155 18.516V25.2199C10.3155 25.9316 10.8928 26.5089 11.6047 26.5089H12.1569V31.098C12.1569 31.5952 12.5612 32 13.0589 32H27.9412C28.4384 32 28.8431 31.5952 28.8431 31.098V26.5089H29.3954C30.1071 26.5089 30.6845 25.9316 30.6845 25.2199V18.5162C30.6845 17.804 30.1071 17.227 29.3954 17.227ZM13.0588 9.90217H23.5062V14.5169C23.5062 14.7661 23.7084 14.9679 23.9572 14.9679H27.9411V17.2273H13.0588V9.90217ZM24.1312 21.904C24.1312 23.1933 23.6617 24.0823 23.0112 24.6321C22.3026 25.2216 21.2232 25.5013 19.9046 25.5013C19.1154 25.5013 18.556 25.4513 18.1758 25.4015V18.7865C18.7354 18.6967 19.4652 18.6467 20.2347 18.6467C21.5129 18.6467 22.3425 18.8767 22.9923 19.3661C23.6914 19.8857 24.1312 20.7149 24.1312 21.904ZM12.3698 25.4315V18.7865C12.8392 18.707 13.499 18.6467 14.4283 18.6467C15.3675 18.6467 16.0371 18.8266 16.4866 19.1866C16.9163 19.5261 17.2054 20.0858 17.2054 20.7453C17.2054 21.405 16.9862 21.9645 16.5862 22.344C16.0666 22.8337 15.2973 23.0537 14.3978 23.0537C14.1983 23.0537 14.0178 23.0435 13.8786 23.0235V25.4316H12.3698V25.4315ZM27.9412 30.8538H13.0588V26.5089H27.9411V30.8538H27.9412ZM29.2481 19.9457H26.6596V21.4845H29.0779V22.7236H26.6596V25.4315H25.1315V18.6967H29.2481V19.9457Z" fill="#115EA3"/>
</g>
</g>
<defs>
<filter id="filter0_dd_980_34049" x="-1" y="-1" width="42" height="43" filterUnits="userSpaceOnUse" color-interpolation-filters="sRGB">
<feFlood flood-opacity="0" result="BackgroundImageFix"/>
<feColorMatrix in="SourceAlpha" type="matrix" values="0 0 0 0 0 0 0 0 0 0 0 0 0 0 0 0 0 0 127 0" result="hardAlpha"/>
<feOffset/>
<feGaussianBlur stdDeviation="1"/>
<feComposite in2="hardAlpha" operator="out"/>
<feColorMatrix type="matrix" values="0 0 0 0 0 0 0 0 0 0 0 0 0 0 0 0 0 0 0.12 0"/>
<feBlend mode="normal" in2="BackgroundImageFix" result="effect1_dropShadow_980_34049"/>
<feColorMatrix in="SourceAlpha" type="matrix" values="0 0 0 0 0 0 0 0 0 0 0 0 0 0 0 0 0 0 127 0" result="hardAlpha"/>
<feOffset dy="1"/>
<feGaussianBlur stdDeviation="1"/>
<feComposite in2="hardAlpha" operator="out"/>
<feColorMatrix type="matrix" values="0 0 0 0 0 0 0 0 0 0 0 0 0 0 0 0 0 0 0.14 0"/>
<feBlend mode="normal" in2="effect1_dropShadow_980_34049" result="effect2_dropShadow_980_34049"/>
<feBlend mode="normal" in="SourceGraphic" in2="effect2_dropShadow_980_34049" result="shape"/>
</filter>
<clipPath id="clip0_980_34049">
<rect width="40" height="40" fill="white"/>
</clipPath>
<clipPath id="clip1_980_34049">
<rect width="23" height="23" fill="white" transform="translate(9 9)"/>
</clipPath>
</defs>
</svg>
