<svg width="20" height="20" viewBox="0 0 20 20" fill="none" xmlns="http://www.w3.org/2000/svg">
<g id="icon/Search">
<path id="Vector" d="M8.33335 2.2915C11.6701 2.2915 14.375 4.99645 14.375 8.33317C14.375 9.7764 13.869 11.1014 13.0246 12.1405L17.1086 16.2246C17.3527 16.4686 17.3527 16.8644 17.1086 17.1084C16.8867 17.3303 16.5395 17.3505 16.2948 17.169L16.2247 17.1084L12.1407 13.0245C11.1016 13.8688 9.77658 14.3748 8.33335 14.3748C4.99663 14.3748 2.29169 11.6699 2.29169 8.33317C2.29169 4.99645 4.99663 2.2915 8.33335 2.2915ZM8.33335 3.5415C5.68699 3.5415 3.54169 5.68681 3.54169 8.33317C3.54169 10.9795 5.68699 13.1248 8.33335 13.1248C10.9797 13.1248 13.125 10.9795 13.125 8.33317C13.125 5.68681 10.9797 3.5415 8.33335 3.5415Z" fill="#B1B1B1"/>
</g>
</svg>
