<svg width="40" height="40" viewBox="0 0 40 40" fill="none" xmlns="http://www.w3.org/2000/svg">
<g clip-path="url(#clip0_980_34057)">
<g filter="url(#filter0_dd_980_34057)">
<path d="M20 39C30.4934 39 39 30.4934 39 20C39 9.50659 30.4934 1 20 1C9.50659 1 1 9.50659 1 20C1 30.4934 9.50659 39 20 39Z" fill="#EBF3FC"/>
</g>
<path d="M17 30H23C28 30 30 28 30 23V17C30 12 28 10 23 10H17C12 10 10 12 10 17V23C10 28 12 30 17 30Z" stroke="#115EA3" stroke-width="1.3" stroke-linecap="round" stroke-linejoin="round"/>
<path d="M17.1001 20V18.52C17.1001 16.61 18.4501 15.84 20.1001 16.79L21.3801 17.53L22.6601 18.27C24.3101 19.22 24.3101 20.78 22.6601 21.73L21.3801 22.47L20.1001 23.21C18.4501 24.16 17.1001 23.38 17.1001 21.48V20Z" stroke="#115EA3" stroke-width="1.3" stroke-miterlimit="10" stroke-linecap="round" stroke-linejoin="round"/>
</g>
<defs>
<filter id="filter0_dd_980_34057" x="-1" y="-1" width="42" height="43" filterUnits="userSpaceOnUse" color-interpolation-filters="sRGB">
<feFlood flood-opacity="0" result="BackgroundImageFix"/>
<feColorMatrix in="SourceAlpha" type="matrix" values="0 0 0 0 0 0 0 0 0 0 0 0 0 0 0 0 0 0 127 0" result="hardAlpha"/>
<feOffset/>
<feGaussianBlur stdDeviation="1"/>
<feComposite in2="hardAlpha" operator="out"/>
<feColorMatrix type="matrix" values="0 0 0 0 0 0 0 0 0 0 0 0 0 0 0 0 0 0 0.12 0"/>
<feBlend mode="normal" in2="BackgroundImageFix" result="effect1_dropShadow_980_34057"/>
<feColorMatrix in="SourceAlpha" type="matrix" values="0 0 0 0 0 0 0 0 0 0 0 0 0 0 0 0 0 0 127 0" result="hardAlpha"/>
<feOffset dy="1"/>
<feGaussianBlur stdDeviation="1"/>
<feComposite in2="hardAlpha" operator="out"/>
<feColorMatrix type="matrix" values="0 0 0 0 0 0 0 0 0 0 0 0 0 0 0 0 0 0 0.14 0"/>
<feBlend mode="normal" in2="effect1_dropShadow_980_34057" result="effect2_dropShadow_980_34057"/>
<feBlend mode="normal" in="SourceGraphic" in2="effect2_dropShadow_980_34057" result="shape"/>
</filter>
<clipPath id="clip0_980_34057">
<rect width="40" height="40" fill="white"/>
</clipPath>
</defs>
</svg>
